<?xml version="1.0" encoding="UTF-8" ?>
<svg version="1.1" width="512" height="512" xmlns="http://www.w3.org/2000/svg" shape-rendering="crispEdges">
<rect x="96" y="64" width="32" height="32" fill="#586452" />
<rect x="128" y="64" width="32" height="32" fill="#586452" />
<rect x="224" y="64" width="32" height="32" fill="#586452" />
<rect x="256" y="64" width="32" height="32" fill="#586452" />
<rect x="288" y="64" width="32" height="32" fill="#586452" />
<rect x="320" y="64" width="32" height="32" fill="#586452" />
<rect x="64" y="96" width="32" height="32" fill="#586452" />
<rect x="96" y="96" width="32" height="32" fill="#586452" />
<rect x="128" y="96" width="32" height="32" fill="#586452" />
<rect x="160" y="96" width="32" height="32" fill="#586452" />
<rect x="224" y="96" width="32" height="32" fill="#586452" />
<rect x="256" y="96" width="32" height="32" fill="#586452" />
<rect x="288" y="96" width="32" height="32" fill="#586452" />
<rect x="320" y="96" width="32" height="32" fill="#586452" />
<rect x="352" y="96" width="32" height="32" fill="#586452" />
<rect x="64" y="128" width="32" height="32" fill="#586452" />
<rect x="96" y="128" width="32" height="32" fill="#586452" />
<rect x="128" y="128" width="32" height="32" fill="#586452" />
<rect x="160" y="128" width="32" height="32" fill="#586452" />
<rect x="224" y="128" width="32" height="32" fill="#586452" />
<rect x="256" y="128" width="32" height="32" fill="#586452" />
<rect x="352" y="128" width="32" height="32" fill="#586452" />
<rect x="384" y="128" width="32" height="32" fill="#586452" />
<rect x="96" y="160" width="32" height="32" fill="#586452" />
<rect x="128" y="160" width="32" height="32" fill="#586452" />
<rect x="224" y="160" width="32" height="32" fill="#586452" />
<rect x="256" y="160" width="32" height="32" fill="#586452" />
<rect x="352" y="160" width="32" height="32" fill="#586452" />
<rect x="384" y="160" width="32" height="32" fill="#586452" />
<rect x="224" y="192" width="32" height="32" fill="#586452" />
<rect x="256" y="192" width="32" height="32" fill="#586452" />
<rect x="384" y="192" width="32" height="32" fill="#586452" />
<rect x="416" y="192" width="32" height="32" fill="#586452" />
<rect x="224" y="224" width="32" height="32" fill="#586452" />
<rect x="256" y="224" width="32" height="32" fill="#586452" />
<rect x="384" y="224" width="32" height="32" fill="#586452" />
<rect x="416" y="224" width="32" height="32" fill="#586452" />
<rect x="224" y="256" width="32" height="32" fill="#586452" />
<rect x="256" y="256" width="32" height="32" fill="#586452" />
<rect x="384" y="256" width="32" height="32" fill="#586452" />
<rect x="416" y="256" width="32" height="32" fill="#586452" />
<rect x="224" y="288" width="32" height="32" fill="#586452" />
<rect x="256" y="288" width="32" height="32" fill="#586452" />
<rect x="384" y="288" width="32" height="32" fill="#586452" />
<rect x="416" y="288" width="32" height="32" fill="#586452" />
<rect x="96" y="320" width="32" height="32" fill="#586452" />
<rect x="128" y="320" width="32" height="32" fill="#586452" />
<rect x="224" y="320" width="32" height="32" fill="#586452" />
<rect x="256" y="320" width="32" height="32" fill="#586452" />
<rect x="352" y="320" width="32" height="32" fill="#586452" />
<rect x="384" y="320" width="32" height="32" fill="#586452" />
<rect x="64" y="352" width="32" height="32" fill="#586452" />
<rect x="96" y="352" width="32" height="32" fill="#586452" />
<rect x="128" y="352" width="32" height="32" fill="#586452" />
<rect x="160" y="352" width="32" height="32" fill="#586452" />
<rect x="224" y="352" width="32" height="32" fill="#586452" />
<rect x="256" y="352" width="32" height="32" fill="#586452" />
<rect x="352" y="352" width="32" height="32" fill="#586452" />
<rect x="384" y="352" width="32" height="32" fill="#586452" />
<rect x="64" y="384" width="32" height="32" fill="#586452" />
<rect x="96" y="384" width="32" height="32" fill="#586452" />
<rect x="128" y="384" width="32" height="32" fill="#586452" />
<rect x="160" y="384" width="32" height="32" fill="#586452" />
<rect x="224" y="384" width="32" height="32" fill="#586452" />
<rect x="256" y="384" width="32" height="32" fill="#586452" />
<rect x="288" y="384" width="32" height="32" fill="#586452" />
<rect x="320" y="384" width="32" height="32" fill="#586452" />
<rect x="352" y="384" width="32" height="32" fill="#586452" />
<rect x="96" y="416" width="32" height="32" fill="#586452" />
<rect x="128" y="416" width="32" height="32" fill="#586452" />
<rect x="224" y="416" width="32" height="32" fill="#586452" />
<rect x="256" y="416" width="32" height="32" fill="#586452" />
<rect x="288" y="416" width="32" height="32" fill="#586452" />
<rect x="320" y="416" width="32" height="32" fill="#586452" />
</svg>